<svg xmlns="http://www.w3.org/2000/svg" width="22.828" height="15.219" viewBox="0 0 22.828 15.219">
  <g id="gift-card_1_" data-name="gift-card (1)" transform="translate(0 -85.332)">
    <g id="Group_801" data-name="Group 801" transform="translate(0 85.333)">
      <g id="Group_800" data-name="Group 800">
        <path id="Path_285" data-name="Path 285" d="M20.45,85.333H2.378A2.381,2.381,0,0,0,0,87.711V98.174a2.381,2.381,0,0,0,2.378,2.378H20.45a2.381,2.381,0,0,0,2.378-2.378V87.711A2.381,2.381,0,0,0,20.45,85.333Zm1.427,12.841A1.428,1.428,0,0,1,20.45,99.6H2.378A1.428,1.428,0,0,1,.951,98.174V87.711a1.428,1.428,0,0,1,1.427-1.427H20.45a1.428,1.428,0,0,1,1.427,1.427V98.174Z" transform="translate(0 -85.333)"/>
      </g>
    </g>
    <g id="Group_803" data-name="Group 803" transform="translate(2.853 94.845)">
      <g id="Group_802" data-name="Group 802">
        <path id="Path_286" data-name="Path 286" d="M68.28,298.667h-3.8a.476.476,0,0,0,0,.951h3.8a.476.476,0,1,0,0-.951Z" transform="translate(-64 -298.667)"/>
      </g>
    </g>
    <g id="Group_805" data-name="Group 805" transform="translate(2.853 96.747)">
      <g id="Group_804" data-name="Group 804" transform="translate(0 0)">
        <path id="Path_287" data-name="Path 287" d="M71.134,341.333H64.476a.476.476,0,0,0,0,.951h6.658a.476.476,0,1,0,0-.951Z" transform="translate(-64 -341.333)"/>
      </g>
    </g>
    <g id="Group_807" data-name="Group 807" transform="translate(8.72 87.396)">
      <g id="Group_806" data-name="Group 806">
        <path id="Path_288" data-name="Path 288" d="M197.382,131.67a1.42,1.42,0,0,0-1.528.522,1.381,1.381,0,0,0-.225,1.23,5.262,5.262,0,0,0,5.014,3.738.476.476,0,0,0,.476-.476A5.262,5.262,0,0,0,197.382,131.67Zm-.841,1.481a.434.434,0,0,1,.075-.39.474.474,0,0,1,.373-.2.443.443,0,0,1,.121.018,4.309,4.309,0,0,1,3.027,3.6A4.309,4.309,0,0,1,196.541,133.151Z" transform="translate(-195.572 -131.614)"/>
      </g>
    </g>
    <g id="Group_809" data-name="Group 809" transform="translate(13.316 87.397)">
      <g id="Group_808" data-name="Group 808">
        <path id="Path_289" data-name="Path 289" d="M303.933,132.195a1.422,1.422,0,0,0-1.528-.522,5.262,5.262,0,0,0-3.738,5.014.476.476,0,0,0,.476.476,5.262,5.262,0,0,0,5.014-3.738A1.382,1.382,0,0,0,303.933,132.195Zm-.688.959a4.305,4.305,0,0,1-3.6,3.027,4.309,4.309,0,0,1,3.028-3.6.455.455,0,0,1,.122-.018.471.471,0,0,1,.372.2A.434.434,0,0,1,303.245,133.154Z" transform="translate(-298.667 -131.617)"/>
      </g>
    </g>
    <g id="Group_811" data-name="Group 811" transform="translate(13.316 85.333)">
      <g id="Group_810" data-name="Group 810">
        <path id="Path_290" data-name="Path 290" d="M299.142,85.333a.476.476,0,0,0-.476.476v14.267a.476.476,0,1,0,.951,0V85.809A.476.476,0,0,0,299.142,85.333Z" transform="translate(-298.666 -85.333)"/>
      </g>
    </g>
    <g id="Group_813" data-name="Group 813" transform="translate(10.462 91.992)">
      <g id="Group_812" data-name="Group 812">
        <path id="Path_291" data-name="Path 291" d="M238.326,234.822a.476.476,0,0,0-.672,0l-2.853,2.853a.476.476,0,0,0,.672.672l2.853-2.853A.476.476,0,0,0,238.326,234.822Z" transform="translate(-234.661 -234.683)"/>
      </g>
    </g>
    <g id="Group_815" data-name="Group 815" transform="translate(13.316 91.992)">
      <g id="Group_814" data-name="Group 814" transform="translate(0 0)">
        <path id="Path_292" data-name="Path 292" d="M302.326,237.676l-2.853-2.853a.476.476,0,1,0-.672.672l2.853,2.853a.476.476,0,0,0,.672-.672Z" transform="translate(-298.661 -234.683)"/>
      </g>
    </g>
    <g id="Group_817" data-name="Group 817" transform="translate(0 91.991)">
      <g id="Group_816" data-name="Group 816">
        <path id="Path_293" data-name="Path 293" d="M22.352,234.667H.476a.476.476,0,1,0,0,.951H22.352a.476.476,0,1,0,0-.951Z" transform="translate(0 -234.667)"/>
      </g>
    </g>
  </g>
</svg>
