<svg xmlns="http://www.w3.org/2000/svg" width="50.298" height="64.055" viewBox="0 0 50.298 64.055">
  <g id="d5ef91bb09cd0e266310f75a8e1915bc" transform="translate(-114.7 -10)">
    <g id="Group_786" data-name="Group 786" transform="translate(114.7 10)">
      <path id="Path_275" data-name="Path 275" d="M138.666-500.786a6.574,6.574,0,0,0-4.777,7.4,5.993,5.993,0,0,0,1.887,3.324,6.1,6.1,0,0,0,2.515,1.648c.362.134.362.147.362,1.42v1.273h-.562a16.7,16.7,0,0,0-3.854.871,19.148,19.148,0,0,0-10.424,9.863c-1.593,3.377-2.288,7.209-2.288,12.543v2.72h-.562c-.99.013-1.539.389-3.814,2.694-1.713,1.756-2.181,2.3-2.3,2.734-.094.362-.148,3.283-.148,8.951v8.4l25.131-.027,25.117-.04.04-8.174c.027-5.843,0-8.389-.12-8.911-.148-.711-.241-.831-2.249-2.854a32.859,32.859,0,0,0-2.529-2.4,3.568,3.568,0,0,0-1.2-.362l-.763-.08-.08-3.886a27.749,27.749,0,0,0-.8-7.464,21.754,21.754,0,0,0-6.4-10.667,15.671,15.671,0,0,0-9.14-3.98l-.642-.08v-2.238l.91-.282a7.021,7.021,0,0,0,1.566-.7,5.7,5.7,0,0,0,1.807-1.675,6.377,6.377,0,0,0-1.673-1.26,4.275,4.275,0,0,0-.749.59,3.689,3.689,0,0,1-3.051.992,3.837,3.837,0,0,1-3.8-4.221,3.864,3.864,0,0,1,3.318-3.967l.736-.148V-501l-.362.014A5.7,5.7,0,0,0,138.666-500.786Zm5.1,17.662c4.9,1.246,8.939,5.32,10.813,10.908.95,2.854,1.2,5.052,1.2,10.506v4.262h3.145l1.914,1.916,1.9,1.9-.027,7.17-.04,7.17H117.041l-.04-7.17-.027-7.17,1.9-1.9,1.914-1.916h2.984l.067-4.53c.067-4.637.255-6.647.83-8.858,1.779-6.875,6.985-11.779,13.381-12.61A18.878,18.878,0,0,1,143.764-483.123Z" transform="translate(-114.7 501)"/>
      <path id="Path_276" data-name="Path 276" d="M325.86,69.333v2.609h2.275l-.027-2.583-.04-2.57-1.1-.04-1.111-.04v2.623Z" transform="translate(-312.078 -29.599)"/>
      <path id="Path_277" data-name="Path 277" d="M430.43,69.519v2.609h2.275V66.91H430.43Z" transform="translate(-409.822 -29.786)"/>
      <path id="Path_278" data-name="Path 278" d="M534.99,69.519v2.609h2.275V66.91H534.99Z" transform="translate(-507.558 -29.786)"/>
      <path id="Path_279" data-name="Path 279" d="M639.634,66.994a18.918,18.918,0,0,0-.094,2.609v2.515h2.275V66.9h-1.044A3.97,3.97,0,0,0,639.634,66.994Z" transform="translate(-605.284 -29.776)"/>
      <path id="Path_280" data-name="Path 280" d="M198.482,208.818a7.74,7.74,0,0,0-3.613,3.479l-.348.736-.04,4.242-.04,4.256h2.288v-3.988c0-4.416.027-4.523.937-5.567a4.243,4.243,0,0,1,2.181-1.285,3.8,3.8,0,0,1,2.7,2.021l.4.723.04,4.041.04,4.055h2.262v-3.747c0-4.081-.08-4.737-.709-5.928a8.92,8.92,0,0,0-3.171-3.011A2.815,2.815,0,0,0,198.482,208.818Z" transform="translate(-189.235 -162.026)"/>
      <path id="Path_281" data-name="Path 281" d="M408.445,208.7A8.612,8.612,0,0,0,404,212.478l-.362.776-.04,4.108-.04,4.122h2.288v-3.854c0-3.479.027-3.894.254-4.4a5.016,5.016,0,0,1,2.315-2.114,2.674,2.674,0,0,1,2.863-.08,4.6,4.6,0,0,1,2.275,2.087c.308.656.321.763.321,4.509v3.854h2.29l-.04-4.188-.04-4.175-.455-.87c-1.044-1.994-3.854-3.894-5.727-3.881A5.4,5.4,0,0,0,408.445,208.7Z" transform="translate(-384.706 -161.978)"/>
      <path id="Path_282" data-name="Path 282" d="M643.7,208.86a8.045,8.045,0,0,0-3.974,3.867c-.281.7-.307.963-.348,4.844l-.04,4.122h2.288v-3.72a20.291,20.291,0,0,1,.2-4.416c.375-1.231,2.034-2.7,3.064-2.7a4.094,4.094,0,0,1,2.743,2.275c.254.562.281.87.281,4.577v3.988h2.288l-.04-4.256-.04-4.242-.442-.924a7.578,7.578,0,0,0-3.239-3.211A2.818,2.818,0,0,0,643.7,208.86Z" transform="translate(-605.097 -162.188)"/>
    </g>
  </g>
</svg>
