<svg id="info" xmlns="http://www.w3.org/2000/svg" width="75" height="75" viewBox="0 0 75 75">
  <g id="Group_472" data-name="Group 472">
    <path id="Path_180" data-name="Path 180" d="M37.5,0A37.5,37.5,0,1,0,75,37.5,37.543,37.543,0,0,0,37.5,0Zm0,70.385A32.885,32.885,0,1,1,70.385,37.5,32.922,32.922,0,0,1,37.5,70.385Z"/>
    <circle id="Ellipse_1" data-name="Ellipse 1" cx="3.345" cy="3.345" r="3.345" transform="translate(34.762 18.974)"/>
    <path id="Path_181" data-name="Path 181" d="M32.137,28.342a2,2,0,0,0-2,2v17a2,2,0,1,0,4,0v-17A2,2,0,0,0,32.137,28.342Z" transform="translate(4.94 6.441)"/>
  </g>
</svg>
