<svg xmlns="http://www.w3.org/2000/svg" width="64.697" height="78" viewBox="0 0 64.697 78">
  <g id="mother-changing-baby-clothes" transform="translate(-48.33 1.5)">
    <g id="Group_501" data-name="Group 501" transform="translate(49.847 0)">
      <circle id="Ellipse_2" data-name="Ellipse 2" cx="5.501" cy="5.501" r="5.501" transform="translate(34.102 0)" fill="none" stroke="#000" stroke-width="3"/>
      <path id="Path_209" data-name="Path 209" d="M327.564,248.362c.937-1.4-.621-2.452-.621-2.452l-5.221-3.733c-.453-.276-2.236-1.512-3.344-.11a2,2,0,0,0,.316,2.9l3.5,2.6a.307.307,0,0,1,.066.414l-2.035,2.941a4.062,4.062,0,0,0-.291.5c-1.879,4.035.993,5.435,1.925,5.771a1.986,1.986,0,0,0,.565.087h8.444c4.2,0,4.1-2.636,4.1-2.636v-8.3a1.8,1.8,0,0,0-1.809-1.809,1.558,1.558,0,0,0-1.511,1.569,4.975,4.975,0,0,0-.009.578v3.215a.289.289,0,0,1-.29.29h-4.868c-.16,0-.2-.1-.1-.216C327,249.187,327.272,248.8,327.564,248.362Z" transform="translate(-282.171 -209.185)" fill="none" stroke="#000" stroke-width="3"/>
      <circle id="Ellipse_3" data-name="Ellipse 3" cx="3.878" cy="3.878" r="3.878" transform="translate(53.91 40.287)" fill="none" stroke="#000" stroke-width="3"/>
      <path id="Path_210" data-name="Path 210" d="M344.13,365.54a1.52,1.52,0,0,0-1.52-1.52H319.738a1.52,1.52,0,0,0,0,3.04H342.61A1.521,1.521,0,0,0,344.13,365.54Z" transform="translate(-282.451 -315.388)" fill="none" stroke="#000" stroke-width="3"/>
      <path id="Path_211" data-name="Path 211" d="M50.657,79.646H62.571v22.841a3.526,3.526,0,0,0,7.053,0V79.646h9.564a.933.933,0,0,0,.95-1.234L74.631,57.934a1.833,1.833,0,0,1,.756-1.91l8.873-5.513.648,6.535,10.865,8.316a2.238,2.238,0,1,0,2.734-3.545l-9.331-7.142L88.5,47.836a2.216,2.216,0,0,0-.3-.895,1.2,1.2,0,0,0-.172-.261l-.028-.032c-.013-.015-.027-.029-.04-.045L78.715,36.18a1.028,1.028,0,0,0-1.636.052L63.269,52.817a18.768,18.768,0,0,0-1.4,2.133L49.983,78.521A.7.7,0,0,0,50.657,79.646Z" transform="translate(-49.847 -30.999)" fill="none" stroke="#000" stroke-width="3"/>
    </g>
  </g>
</svg>
