<svg xmlns="http://www.w3.org/2000/svg" width="50.463" height="75" viewBox="0 0 50.463 75">
  <g id="newborn" transform="translate(-84.544)">
    <g id="Group_482" data-name="Group 482" transform="translate(84.544)">
      <g id="Group_481" data-name="Group 481" transform="translate(0)">
        <path id="Path_203" data-name="Path 203" d="M135.008,27.737a48.806,48.806,0,0,0-1.533-12.882,21.807,21.807,0,0,0-5.943-10.507,1.237,1.237,0,0,0-1.742.071,1.223,1.223,0,0,0,.071,1.734c5.522,5.065,6.681,14.533,6.681,21.584,0,12.817-5.776,16.005-9.361,16.747A17.03,17.03,0,0,0,125.7,34.8a49,49,0,0,0-.6-6.175c-.727-4.235-2.464-10.042-9.132-11.575-6.552-1.5-10.679-6.768-11.94-8.592a8.04,8.04,0,0,1,7.785-6h4.113a9.379,9.379,0,0,1,1.051.058l.062.007.024,0,.05,0a15.286,15.286,0,0,1,6.321,1.857,1.229,1.229,0,1,0,1.222-2.132A17.739,17.739,0,0,0,117.313.08l-.041,0A11.8,11.8,0,0,0,115.927,0h-4.113a10.5,10.5,0,0,0-10.306,8.422c0,.01,0,.021-.007.032l0,.011a10.394,10.394,0,0,0-.192,1.995V21.11a13.3,13.3,0,0,0,12.084,13.2v1.085a17.032,17.032,0,0,0-2.521,1.252,8.412,8.412,0,0,0-3.055,2.923l-3.458-3.442a11.688,11.688,0,0,0-19.371,4.668,1.232,1.232,0,0,0,2.349.748,9.054,9.054,0,0,1,2.259-3.68,9.182,9.182,0,0,1,5.758-2.647,7.46,7.46,0,1,0,12.317,7.679l6.1,6.076a9.185,9.185,0,0,1-13.02,12.96L89.592,50.82A9.073,9.073,0,0,1,87,45.7a1.233,1.233,0,0,0-2.439.362A11.493,11.493,0,0,0,87.5,52.193l.109,4.219A3.485,3.485,0,0,0,91.095,59.8a3.515,3.515,0,0,0,.68-.067l2.74-.54.241.24c.5,1.778,3.063,9.752,9.783,13.565a15.427,15.427,0,0,0,7.734,2,21.076,21.076,0,0,0,6.11-.968,17.189,17.189,0,0,0,8.968-6.237,24.091,24.091,0,0,0,4.04-9.274,1.233,1.233,0,0,0-2.407-.533c-1.633,7.306-5.441,11.914-11.32,13.7a15.854,15.854,0,0,1-9.42.257V67.023a11.606,11.606,0,0,0,7.267-3.355l0,0,0,0h0c.275-.272,6.165-6.192,6.534-13.116a1.233,1.233,0,0,0-2.463-.13,12.737,12.737,0,0,1-.748,3.561,11.508,11.508,0,0,0-3.323-6.746l-5.822-5.8c.334-1.435,2.179-2.637,3.7-3.367v.466a1.229,1.229,0,0,0,1,1.2,26.78,26.78,0,0,0,4.754.458,14.269,14.269,0,0,0,3.465-.378,14.674,14.674,0,0,1-2.918,5.28,1.226,1.226,0,0,0,.8,2.019,6.759,6.759,0,0,0,.677.028A12.667,12.667,0,0,0,129.2,44.19c.121-.1.24-.208.358-.315a49.318,49.318,0,0,1,.057,10.218,1.229,1.229,0,0,0,1.1,1.35,1.251,1.251,0,0,0,.132.007,1.231,1.231,0,0,0,1.225-1.1,51.809,51.809,0,0,0-.355-13.014,16.609,16.609,0,0,0,1.589-3.083A28.872,28.872,0,0,0,135.008,27.737ZM100.575,45.523a4.989,4.989,0,0,1-1.345-9.8,9.145,9.145,0,0,1,1.48.684,1.227,1.227,0,1,0,1.94,1.491l2.93,2.917A5.011,5.011,0,0,1,100.575,45.523ZM91.3,57.323a1.023,1.023,0,0,1-1.223-.974l-.042-1.62L92.416,57.1Zm14.483,13.551-.006,0a17.663,17.663,0,0,1-6.453-6.912,11.592,11.592,0,0,0,6.459,3.012v3.9ZM103.773,21.11v-9a24.9,24.9,0,0,0,6.741,5.467v7.381a1.23,1.23,0,0,0,1.233,1.227h2.661a1.227,1.227,0,1,0,0-2.454H112.98V18.7a18.741,18.741,0,0,0,2.434.74c3.9.9,6.122,3.69,7.151,9.024a10.859,10.859,0,0,1-18.792-7.356ZM115.856,37.5V34.307a13.3,13.3,0,0,0,7.134-2.886c.109,1.059.191,2.211.245,3.483a14.7,14.7,0,0,1-.057,2.071C121.774,37.9,118.417,37.866,115.856,37.5Z" transform="translate(-84.544)"/>
      </g>
    </g>
    <g id="Group_484" data-name="Group 484" transform="translate(105.417 17.997)">
      <g id="Group_483" data-name="Group 483" transform="translate(0)">
        <path id="Path_204" data-name="Path 204" d="M229.529,123.053l-1.808-.164a1.233,1.233,0,0,0-.223,2.456l1.808.164c.038,0,.076.005.113.005a1.233,1.233,0,0,0,.11-2.461Z" transform="translate(-226.376 -122.883)"/>
      </g>
    </g>
    <g id="Group_486" data-name="Group 486" transform="translate(97.105 39.594)">
      <g id="Group_485" data-name="Group 485" transform="translate(0)">
        <path id="Path_205" data-name="Path 205" d="M171.783,270.528a1.233,1.233,0,1,0,.537,1.341A1.247,1.247,0,0,0,171.783,270.528Z" transform="translate(-169.893 -270.341)"/>
      </g>
    </g>
  </g>
</svg>
