<svg id="power-bank" xmlns="http://www.w3.org/2000/svg" width="62.5" height="75" viewBox="0 0 62.5 75">
  <path id="Path_182" data-name="Path 182" d="M53.75,75a8.76,8.76,0,0,0,8.75-8.75V8.75A8.76,8.76,0,0,0,53.75,0h-45A8.76,8.76,0,0,0,0,8.75v57.5A8.76,8.76,0,0,0,8.75,75ZM2.5,8.75A6.257,6.257,0,0,1,8.75,2.5h45A6.257,6.257,0,0,1,60,8.75V60.139A8.715,8.715,0,0,0,53.75,57.5h-45A8.715,8.715,0,0,0,2.5,60.139Zm0,57.5A6.257,6.257,0,0,1,8.75,60h45a6.25,6.25,0,0,1,0,12.5h-45A6.257,6.257,0,0,1,2.5,66.25Zm0,0"/>
  <path id="Path_183" data-name="Path 183" d="M289.256,407.535H299.3a1.256,1.256,0,0,0,1.256-1.256v-5.023A1.256,1.256,0,0,0,299.3,400H289.256A1.256,1.256,0,0,0,288,401.256v5.023A1.256,1.256,0,0,0,289.256,407.535Zm1.256-5.023h7.535v2.512h-7.535Zm0,0" transform="translate(-243.081 -337.558)"/>
  <path id="Path_184" data-name="Path 184" d="M193.382,406.84a1.255,1.255,0,0,0,1.13.695h7.535a1.255,1.255,0,0,0,1.13-.695l1.256-2.512a1.26,1.26,0,0,0,.126-.561v-2.512A1.256,1.256,0,0,0,203.3,400H193.256A1.256,1.256,0,0,0,192,401.256v2.512a1.253,1.253,0,0,0,.132.561Zm1.13-4.328h7.535v.96l-.776,1.552h-5.982l-.776-1.552Zm0,0" transform="translate(-162.035 -337.558)"/>
  <path id="Path_185" data-name="Path 185" d="M39.535,403.767a3.767,3.767,0,1,0-3.767,3.767A3.768,3.768,0,0,0,39.535,403.767Zm-5.023,0a1.256,1.256,0,1,1,1.256,1.256A1.256,1.256,0,0,1,34.512,403.767Zm0,0" transform="translate(-26.977 -337.558)"/>
  <path id="Path_186" data-name="Path 186" d="M160,416h2.512v2.512H160Zm0,0" transform="translate(-135.005 -351.046)"/>
  <path id="Path_187" data-name="Path 187" d="M128,416h2.512v2.512H128Zm0,0" transform="translate(-108.004 -351.046)"/>
  <path id="Path_188" data-name="Path 188" d="M96,416h2.512v2.512H96Zm0,0" transform="translate(-81.003 -351.046)"/>
</svg>
