<svg xmlns="http://www.w3.org/2000/svg" width="75" height="75" viewBox="0 0 75 75">
  <g id="search" transform="translate(-0.001 0)">
    <path id="Path_175" data-name="Path 175" d="M63.228,36.608a1.11,1.11,0,1,0-1.445,1.686,16.589,16.589,0,1,1-4.352-2.7,1.11,1.11,0,1,0,.865-2.045,18.9,18.9,0,1,0,4.933,3.057Zm0,0" transform="translate(-27.328 -27.328)"/>
    <path id="Path_176" data-name="Path 176" d="M74.682,68.143,52.674,46.135a1.1,1.1,0,0,0-1.557,0l-.051.051-8.848-8.847a23.436,23.436,0,1,0-4.878,4.878l8.847,8.847a1.123,1.123,0,0,0-.052,1.609L68.144,74.682a1.111,1.111,0,0,0,1.557,0L74.682,69.7a1.112,1.112,0,0,0,0-1.557ZM2.2,23.411a21.21,21.21,0,1,1,21.209,21.21A21.234,21.234,0,0,1,2.2,23.411Zm36.85,17.4a23.754,23.754,0,0,0,1.764-1.764l8.692,8.692-1.765,1.765Zm29.87,31.531L48.471,51.9,51.9,48.47,72.347,68.922Zm0,0"/>
    <path id="Path_177" data-name="Path 177" d="M89.29,88.176a1.111,1.111,0,0,0-1.11,1.111V108.24a1.11,1.11,0,0,0,1.11,1.111h18.954a1.11,1.11,0,0,0,1.111-1.111V89.286a1.111,1.111,0,0,0-1.111-1.111ZM100.026,90.4v4.886H97.508V90.4Zm7.108,16.732H90.4V90.4h4.886v6A1.11,1.11,0,0,0,96.4,97.5h4.739a1.111,1.111,0,0,0,1.111-1.111v-6h4.886Zm0,0" transform="translate(-75.307 -75.304)"/>
    <path id="Path_178" data-name="Path 178" d="M120.445,160.324h-7.108a1.11,1.11,0,0,0-1.111,1.11v3.554a1.111,1.111,0,0,0,1.111,1.111h7.108a1.111,1.111,0,0,0,1.11-1.111v-3.554A1.11,1.11,0,0,0,120.445,160.324Zm-1.111,3.554h-4.886v-1.333h4.886Zm0,0" transform="translate(-95.807 -136.856)"/>
  </g>
</svg>
