<svg xmlns="http://www.w3.org/2000/svg" width="75" height="75" viewBox="0 0 75 75">
  <path id="stroller" d="M60.071,53.02A15.477,15.477,0,0,0,75,37.5V24.17A24.2,24.2,0,0,0,50.83,0H44.238V22.35a6.625,6.625,0,0,0-4.017,4.017H13.477V13.184H0v4.395H9.082V37.5A15.477,15.477,0,0,0,24.011,53.02L36.27,58.068,29.295,60.94A8.8,8.8,0,1,0,30.97,65l11.071-4.559L53.112,65a8.8,8.8,0,1,0,1.675-4.063l-6.976-2.872ZM22.266,70.606a4.395,4.395,0,1,1,4.395-4.395A4.4,4.4,0,0,1,22.266,70.606Zm39.551-8.789a4.395,4.395,0,1,1-4.395,4.395A4.4,4.4,0,0,1,61.817,61.816Zm8.789-35.449H52.65a6.668,6.668,0,0,0-.267-.643l13.891-13.89A19.678,19.678,0,0,1,70.606,24.17ZM50.83,4.395A19.678,19.678,0,0,1,63.166,8.726L49.274,22.617a6.456,6.456,0,0,0-.643-.266V4.395ZM46.436,26.367a2.2,2.2,0,1,1-2.2,2.2A2.2,2.2,0,0,1,46.436,26.367ZM13.477,37.5V30.762H40.221a6.591,6.591,0,0,0,12.428,0H70.606V37.5A11.073,11.073,0,0,1,59.619,48.633H24.463A11.073,11.073,0,0,1,13.477,37.5ZM35.57,53.027H48.512l-6.471,2.665Zm0,0"/>
</svg>
