<svg xmlns="http://www.w3.org/2000/svg" width="75.939" height="69.674" viewBox="0 0 75.939 69.674">
  <g id="valet" transform="translate(0 -21.122)">
    <g id="Group_488" data-name="Group 488" transform="translate(0 57.722)">
      <g id="Group_487" data-name="Group 487" transform="translate(0 0)">
        <path id="Path_206" data-name="Path 206" d="M75.143,277.855a4.624,4.624,0,0,0-6.386-1.235l-14.528,9.723-3.106-.174-.08-.8a6.74,6.74,0,0,0-5.776-6.021l-.028,0-11.832-1.362a20.028,20.028,0,0,1-7.329-2.554,22.362,22.362,0,0,0-11.28-3.057H13.042v-2.087a2.4,2.4,0,0,0-2.4-2.4H2.4a2.4,2.4,0,0,0-2.4,2.4V285.9a1.107,1.107,0,1,0,2.214,0v-15.61A.187.187,0,0,1,2.4,270.1h8.24a.187.187,0,0,1,.187.187v26.1a.187.187,0,0,1-.187.187H2.4a.187.187,0,0,1-.187-.187v-3.218a1.107,1.107,0,0,0-2.214,0v3.218a2.4,2.4,0,0,0,2.4,2.4h8.24a2.4,2.4,0,0,0,2.4-2.4v-1.575l15.4,5.83q.045.017.091.03a7.438,7.438,0,0,0,2.024.287,6.812,6.812,0,0,0,1.065-.083L54.356,297.6l.017,0a11.179,11.179,0,0,0,5.283-2.362l14.676-11.282c.021-.016.041-.033.06-.05A4.625,4.625,0,0,0,75.143,277.855Zm-2.195,4.366L58.294,293.487l-.025.02a8.96,8.96,0,0,1-4.238,1.9l-22.717,3.275-.031,0a4.989,4.989,0,0,1-2.107-.134l-16.134-6.11V274.588H14.8a20.144,20.144,0,0,1,10.162,2.754,22.233,22.233,0,0,0,8.15,2.836l.028,0,11.832,1.362a4.532,4.532,0,0,1,3.87,4.046l.032.322-24.183-3.671a1.107,1.107,0,0,0-.332,2.189l25.592,3.885h0c.034.005.068.009.1.011l4.422.248a1.109,1.109,0,0,0,.678-.185l14.838-9.93a2.4,2.4,0,0,1,3.323.642h0A2.406,2.406,0,0,1,72.948,282.222Z" transform="translate(0 -267.885)"/>
      </g>
    </g>
    <g id="Group_490" data-name="Group 490" transform="translate(54.27 25.694)">
      <g id="Group_489" data-name="Group 489" transform="translate(0 0)">
        <path id="Path_207" data-name="Path 207" d="M377.357,59.526l-6.772-6.772a2.745,2.745,0,1,0-3.882,3.882l6.772,6.772a2.745,2.745,0,0,0,3.882-3.882Zm-1.566,2.317a.531.531,0,0,1-.751,0l-6.772-6.772a.531.531,0,1,1,.751-.751l6.772,6.772a.53.53,0,0,1,0,.751Z" transform="translate(-365.899 -51.95)"/>
      </g>
    </g>
    <g id="Group_492" data-name="Group 492" transform="translate(28.621 21.122)">
      <g id="Group_491" data-name="Group 491" transform="translate(0 0)">
        <path id="Path_208" data-name="Path 208" d="M233.666,30.8l-7.886-7.886a6.108,6.108,0,0,0-9.15.582l-8.972,11.6a6.136,6.136,0,0,0,.025,7.521l-2.294,2.294a1.474,1.474,0,0,0-.366,1.474l-2.457,2.457a1.473,1.473,0,0,0-.263.357l-1.328,2.529-2.4,1.242a1.469,1.469,0,0,0-.707.8l-.739,2.027L194.4,57.163a1.479,1.479,0,0,0-.792,1.071l-.617,3.654a1.473,1.473,0,0,0,1.7,1.7l3.653-.618a1.477,1.477,0,0,0,1.071-.792l1.368-2.725,2.027-.739a1.47,1.47,0,0,0,.8-.707l1.242-2.4,2.531-1.329a1.479,1.479,0,0,0,.356-.262l2.456-2.456a1.477,1.477,0,0,0,1.475-.367l2.294-2.294a6.133,6.133,0,0,0,7.521.025l3.69-2.855a1.107,1.107,0,0,0-1.355-1.751l-3.69,2.855a3.915,3.915,0,0,1-5.154-.327L209.736,41.6a3.916,3.916,0,0,1-.327-5.154l8.972-11.6a3.894,3.894,0,0,1,5.833-.371l7.886,7.886a3.894,3.894,0,0,1-.371,5.833l-2.138,1.654a1.107,1.107,0,0,0,1.355,1.751l2.138-1.655a6.108,6.108,0,0,0,.582-9.15Zm-24.45,13.412,3.152,3.152-1.858,1.858a1.474,1.474,0,0,0-1.474.366l-2.78,2.78-2.636,1.384a1.466,1.466,0,0,0-.624.628l-1.216,2.353-2.032.741a1.466,1.466,0,0,0-.812.723L197.6,60.846l-2.254.381.381-2.254,2.653-1.331a1.468,1.468,0,0,0,.722-.812l.741-2.032,2.354-1.217a1.467,1.467,0,0,0,.627-.623l1.384-2.636,2.781-2.78a1.474,1.474,0,0,0,.366-1.474Z" transform="translate(-192.971 -21.122)"/>
      </g>
    </g>
  </g>
</svg>
