<svg xmlns="http://www.w3.org/2000/svg" width="89.277" height="75" viewBox="0 0 89.277 75">
  <g id="wheel-chair" transform="translate(0 -40.94)">
    <g id="Group_455" data-name="Group 455" transform="translate(0 40.94)">
      <g id="Group_454" data-name="Group 454" transform="translate(0 0)">
        <path id="Path_172" data-name="Path 172" d="M123.874,321.589a9.569,9.569,0,0,0-6.517-2.557h-.013a9.582,9.582,0,0,0-3.275.578c-.036.013-.07.029-.1.044a1.716,1.716,0,0,0,1.28,3.182,6.174,6.174,0,1,1-3.915,7.139,1.717,1.717,0,0,0-3.353.739,9.606,9.606,0,1,0,15.9-9.125Z" transform="translate(-89.035 -270.132)"/>
        <path id="Path_173" data-name="Path 173" d="M88.739,96.822a5.258,5.258,0,0,0-7.16-2.012l-6.306,3.541-4.771-7.5a4.969,4.969,0,0,0-4.212-2.312h-.1V73.766a7.141,7.141,0,0,0-7.133-7.133h-.893a4.868,4.868,0,0,0-4.655-3.466H35.831a4.868,4.868,0,0,0-4.655,3.466h-5.95L23.254,53l-.613-4.356a5.426,5.426,0,0,0-5.349-4.65h-2.23V42.684a1.744,1.744,0,0,0-1.744-1.744H4.8a4.8,4.8,0,0,0,0,9.593h8.522a1.744,1.744,0,0,0,1.744-1.744V47.48h2.231a1.923,1.923,0,0,1,1.9,1.648l.334,2.374a4.718,4.718,0,0,0-4.66,5.389l3.105,21.628a4.743,4.743,0,0,0,4.671,4.048h1.253l.065.466a16.757,16.757,0,1,0,19.577,9H62.7v8.242a7.883,7.883,0,1,0,3.487.247V92.028h.1a1.5,1.5,0,0,1,1.269.7L76.4,106.611a1.746,1.746,0,0,0,.281.338l.008.008c.024.022.05.04.075.061a1.735,1.735,0,0,0,1.953.183l8.4-4.656a4.2,4.2,0,0,0,1.625-5.722ZM11.574,47.045H4.8a1.309,1.309,0,0,1,0-2.618h6.778v2.618ZM22.638,79.079a1.238,1.238,0,0,1-1.219-1.057L18.314,56.4a1.232,1.232,0,0,1,1.219-1.406h.48L23.4,79.079ZM34.458,68.026a1.374,1.374,0,0,1,1.373-1.372h17.68a1.374,1.374,0,0,1,1.372,1.372v1.118H34.458ZM31,70.12a2.922,2.922,0,0,0,2.888,2.512H55.45a2.922,2.922,0,0,0,2.888-2.512h.721a3.65,3.65,0,0,1,3.646,3.646v3.47a6.851,6.851,0,0,0-3.408-.9H31.888a6.873,6.873,0,0,0-4.955,2.108l-1.2-8.319H31ZM28.39,112.453a13.263,13.263,0,0,1-.5-26.517c.168-.006.335-.013.5-.013l.09,0a13.193,13.193,0,0,1,7.812,2.616,13.37,13.37,0,0,1,3.256,3.487A13.254,13.254,0,0,1,28.39,112.453ZM62.705,88.541H41.314a16.726,16.726,0,0,0-12.739-6.1,3.411,3.411,0,0,1,3.312-2.62H59.3a3.412,3.412,0,0,1,3.408,3.408Zm5.6,19.519a4.393,4.393,0,1,1-4.393-4.393A4.4,4.4,0,0,1,68.3,108.059Zm17.46-8.992a.7.7,0,0,1-.338.426l-6.966,3.861L77.148,101.3l6.139-3.447a1.77,1.77,0,0,1,2.411.677A.7.7,0,0,1,85.761,99.067Z" transform="translate(0 -40.94)"/>
        <path id="Path_174" data-name="Path 174" d="M112.988,344.677a1.7,1.7,0,0,0,.158.3,1.721,1.721,0,0,0,.771.634,1.824,1.824,0,0,0,.321.1,1.72,1.72,0,0,0,.337.034,1.69,1.69,0,0,0,.335-.034,1.716,1.716,0,0,0,.321-.1,1.694,1.694,0,0,0,.3-.158,1.752,1.752,0,0,0,.261-.215,1.645,1.645,0,0,0,.213-.261,1.7,1.7,0,0,0,.158-.3,1.73,1.73,0,0,0,.1-.321,1.649,1.649,0,0,0,0-.669,1.726,1.726,0,0,0-.1-.321,1.694,1.694,0,0,0-.158-.3,1.668,1.668,0,0,0-.474-.474,1.694,1.694,0,0,0-.3-.158,1.734,1.734,0,0,0-.321-.1,1.7,1.7,0,0,0-.671,0,1.817,1.817,0,0,0-.321.1,1.741,1.741,0,0,0-.3.158,1.645,1.645,0,0,0-.261.213,1.753,1.753,0,0,0-.215.261,1.7,1.7,0,0,0-.158.3,1.729,1.729,0,0,0-.1.321,1.734,1.734,0,0,0,0,.669A1.725,1.725,0,0,0,112.988,344.677Z" transform="translate(-93.167 -289.716)"/>
      </g>
    </g>
  </g>
</svg>
