<svg xmlns="http://www.w3.org/2000/svg" width="75" height="53.448" viewBox="0 0 75 53.448">
  <g id="wifi" transform="translate(0 -7.89)">
    <path id="Path_190" data-name="Path 190" d="M74.6,23.21a52.582,52.582,0,0,0-74.2,0,1.365,1.365,0,1,0,1.931,1.928,49.847,49.847,0,0,1,70.336,0A1.364,1.364,0,0,0,74.6,23.21Z" transform="translate(0)"/>
    <path id="Path_191" data-name="Path 191" d="M6.278,28.2A1.365,1.365,0,0,0,8.211,30.13a38.492,38.492,0,0,1,54.3,0A1.365,1.365,0,0,0,64.443,28.2,41.233,41.233,0,0,0,6.278,28.2Z" transform="translate(2.138 3.047)"/>
    <path id="Path_192" data-name="Path 192" d="M33.223,24.508A29.633,29.633,0,0,0,12.158,33.2a1.365,1.365,0,0,0,1.934,1.928,27.14,27.14,0,0,1,38.262,0A1.365,1.365,0,0,0,54.287,33.2,29.631,29.631,0,0,0,33.223,24.508Z" transform="translate(4.277 6.09)"/>
    <path id="Path_193" data-name="Path 193" d="M29.837,33.916a8.936,8.936,0,1,0,8.936,8.936A8.945,8.945,0,0,0,29.837,33.916Zm0,15.142a6.208,6.208,0,1,1,6.208-6.208A6.214,6.214,0,0,1,29.837,49.058Z" transform="translate(7.663 9.551)"/>
  </g>
</svg>
