<svg xmlns="http://www.w3.org/2000/svg" width="25.787" height="25.787" viewBox="0 0 25.787 25.787">
  <g id="Group_795" data-name="Group 795" transform="translate(-281.016 -4099.126)">
    <rect id="Rectangle_68" data-name="Rectangle 68" width="25.786" height="25.786" rx="12.893" transform="translate(281.015 4099.126)" fill="#deb075"/>
    <g id="instagram" transform="translate(286.876 4104.987)">
      <path id="Path_80" data-name="Path 80" d="M7.037,1.267c1.88,0,2.1.008,2.842.041a3.857,3.857,0,0,1,1.306.242,2.176,2.176,0,0,1,.808.525,2.2,2.2,0,0,1,.528.808,3.869,3.869,0,0,1,.242,1.305c.033.742.041.964.041,2.841s-.008,2.1-.041,2.841a3.853,3.853,0,0,1-.242,1.305,2.175,2.175,0,0,1-.525.808,2.205,2.205,0,0,1-.808.528,3.873,3.873,0,0,1-1.306.242c-.742.033-.965.041-2.842.041s-2.1-.008-2.842-.041a3.857,3.857,0,0,1-1.306-.242,2.176,2.176,0,0,1-.808-.525,2.2,2.2,0,0,1-.528-.808,3.869,3.869,0,0,1-.242-1.305c-.033-.742-.041-.964-.041-2.841s.008-2.1.041-2.841a3.853,3.853,0,0,1,.242-1.305,2.175,2.175,0,0,1,.525-.808,2.205,2.205,0,0,1,.808-.528,3.873,3.873,0,0,1,1.306-.242C4.934,1.275,5.157,1.267,7.037,1.267ZM7.037,0c-1.91,0-2.15.008-2.9.041A5.143,5.143,0,0,0,2.43.368a3.435,3.435,0,0,0-1.248.813A3.446,3.446,0,0,0,.368,2.426,5.153,5.153,0,0,0,.041,4.132C.008,4.885,0,5.124,0,7.034s.008,2.149.041,2.9a5.138,5.138,0,0,0,.327,1.706,3.433,3.433,0,0,0,.814,1.247,3.44,3.44,0,0,0,1.245.811,5.158,5.158,0,0,0,1.707.327c.75.033.99.041,2.9.041s2.15-.008,2.9-.041a5.143,5.143,0,0,0,1.707-.327A3.594,3.594,0,0,0,13.7,11.642a5.153,5.153,0,0,0,.327-1.706c.033-.75.041-.989.041-2.9s-.008-2.149-.041-2.9A5.138,5.138,0,0,0,13.7,2.432a3.294,3.294,0,0,0-.805-1.25A3.44,3.44,0,0,0,11.646.371,5.158,5.158,0,0,0,9.939.044C9.186.008,8.947,0,7.037,0h0Z" transform="translate(0)" fill="#6f1d46"/>
      <path id="Path_81" data-name="Path 81" d="M128.022,124.5a3.522,3.522,0,1,0,3.522,3.522A3.523,3.523,0,0,0,128.022,124.5Zm0,5.807a2.285,2.285,0,1,1,2.285-2.285A2.285,2.285,0,0,1,128.022,130.307Z" transform="translate(-120.986 -120.988)" fill="#6f1d46"/>
      <path id="Path_82" data-name="Path 82" d="M363.739,89.47a.87.87,0,1,1-.87-.87A.87.87,0,0,1,363.739,89.47Z" transform="translate(-352.091 -86.176)" fill="#6f1d46"/>
    </g>
  </g>
</svg>
