<svg xmlns="http://www.w3.org/2000/svg" width="25.787" height="25.787" viewBox="0 0 25.787 25.787">
  <g id="Group_794" data-name="Group 794" transform="translate(-243.508 -4099.126)">
    <rect id="Rectangle_67" data-name="Rectangle 67" width="25.786" height="25.786" rx="12.893" transform="translate(243.508 4099.126)" fill="#deb075"/>
    <path id="twitter" d="M13.965,65.351a5.69,5.69,0,0,1-1.656.453,2.9,2.9,0,0,0,1.269-1.6,5.8,5.8,0,0,1-1.832.7A2.888,2.888,0,0,0,6.83,67.54,8.188,8.188,0,0,1,.883,64.525a2.889,2.889,0,0,0,.893,3.851,2.888,2.888,0,0,1-1.307-.36v.036A2.885,2.885,0,0,0,2.784,70.88a2.89,2.89,0,0,1-.761.1,2.968,2.968,0,0,1-.544-.052,2.894,2.894,0,0,0,2.694,2.005A5.786,5.786,0,0,1,.589,74.171,5.736,5.736,0,0,1-.1,74.129a8.16,8.16,0,0,0,4.425,1.3,8.155,8.155,0,0,0,8.21-8.21c0-.126,0-.25-.008-.374A5.808,5.808,0,0,0,13.965,65.351Z" transform="translate(249.468 4042.159)" fill="#6f1d46"/>
  </g>
</svg>
