<svg xmlns="http://www.w3.org/2000/svg" width="25.787" height="25.787" viewBox="0 0 25.787 25.787">
  <g id="Group_796" data-name="Group 796" transform="translate(-318.523 -4099.126)">
    <rect id="Rectangle_69" data-name="Rectangle 69" width="25.786" height="25.786" rx="12.893" transform="translate(318.523 4099.126)" fill="#deb075"/>
    <path id="youtube" d="M14.022,78.035a3.029,3.029,0,0,0-.56-1.4,2.014,2.014,0,0,0-1.409-.6c-1.967-.143-4.92-.143-4.92-.143H7.127s-2.953,0-4.92.143a2.014,2.014,0,0,0-1.409.6,3.013,3.013,0,0,0-.558,1.4A21.338,21.338,0,0,0,.1,80.312v1.066a21.407,21.407,0,0,0,.14,2.277,3.046,3.046,0,0,0,.558,1.4,2.4,2.4,0,0,0,1.552.6c1.126.107,4.783.14,4.783.14s2.956-.005,4.923-.146a2.014,2.014,0,0,0,1.409-.6,3.029,3.029,0,0,0,.56-1.4,21.339,21.339,0,0,0,.14-2.277V80.312a21.84,21.84,0,0,0-.143-2.277ZM5.677,82.672V78.719l3.8,1.983Z" transform="translate(324.283 4031.431)" fill="#6f1d46"/>
  </g>
</svg>
